<mxfile host="app.diagrams.net" modified="2023-09-28T22:44:13.157Z" agent="Mozilla/5.0 (Windows NT 10.0; Win64; x64) AppleWebKit/537.36 (KHTML, like Gecko) Chrome/116.0.0.0 Safari/537.36 OPR/102.0.0.0" version="22.0.0" etag="ami3whxvpWs4Gfc98CpT" type="github">
  <diagram name="PÃ¡gina-1" id="Hwoz7w4nF_wLBRiXWMAU">
    <mxGraphModel>
      <root>
        <mxCell id="0" />
        <mxCell id="1" parent="0" />
      </root>
    </mxGraphModel>
  </diagram>
</mxfile>
